# AST/ASF file generated using VICON BodyLanguage
# -----------------------------------------------
:version 1.10
:name VICON
:units
  mass 1.0
  length 0.45
  angle deg
:documentation
   .ast/.asf automatically generated from VICON data using
   VICON BodyBuilder and BodyLanguage model FoxedUp or BRILLIANT.MOD
:root
   order TX TY TZ RX RY RZ
   axis XYZ
   position 0 0 0  
   orientation 0 0 0 
:bonedata
  begin
     id 1 
     name lhipjoint
     direction 0.521689 -0.742065 0.420928 
     length 2.47002 
     axis 0 0 0  XYZ
  end
  begin
     id 2 
     name lfemur
     direction 0.34202 -0.939693 0  
     length 7.24654  
     axis 0 0 20  XYZ
    dof rx ry rz
    limits (-160.0 20.0)
           (-70.0 70.0)
           (-60.0 70.0)
  end
  begin
     id 3 
     name ltibia
     direction 0.34202 -0.939693 0   
     length 8.04849   
     axis 0 0 20   XYZ
    dof rx
    limits (-10.0 170.0)
  end
  begin
     id 4 
     name lfoot
     direction 0.0745411 -0.2048 0.975961   
     length 1.72367   
     axis -90 7.62852e-016 20   XYZ
    dof rx rz
    limits (-45.0 90.0)
           (-70.0 20.0)
  end
  begin
     id 5 
     name ltoes
     direction 1.53556e-011 -4.21901e-011 1   
     length 0.87311   
     axis -90 7.62852e-016 20   XYZ
    dof rx
    limits (-90.0 20.0)
  end
  begin
     id 6 
     name rhipjoint
     direction -0.52849 -0.738415 0.418857   
     length 2.48223  
     axis 0 0 0  XYZ 
  end
  begin
     id 7 
     name rfemur
     direction -0.34202 -0.939693 0   
     length 7.15571   
     axis 0 0 -20   XYZ
    dof rx ry rz
    limits (-160.0 20.0)
           (-70.0 70.0)
           (-70.0 60.0)
  end
  begin
     id 8 
     name rtibia
     direction -0.34202 -0.939693 0   
     length 7.81659   
     axis 0 0 -20   XYZ
    dof rx
    limits (-10.0 170.0)
 end
 begin
     id 9 
     name rfoot
     direction -0.0917348 -0.252039 0.963359   
     length 1.84382  
     axis -90 -7.62852e-016 -20   XYZ
    dof rx rz
    limits (-45.0 90.0)
           (-20.0 70.0)
  end
  begin
     id 10 
     name rtoes
     direction -1.53551e-011 -4.21879e-011 1   
     length 0.927771   
     axis -90 -7.62852e-016 -20   XYZ
    dof rx
    limits (-90.0 20.0)
  end
  begin
     id 11 
     name lowerback
     direction 0.00583058 0.999822 0.0179296   
     length 2.1429   
     axis 0 0 0   XYZ
    dof rx ry rz
    limits (-20.0 45.0)
           (-30.0 30.0)
           (-30.0 30.0)
  end
  begin
     id 12 
     name upperback
     direction -0.0137999 0.999752 -0.0175071   
     length 2.14252   
     axis 0 0 0   XYZ
    dof rx ry rz
    limits (-20.0 45.0)
           (-30.0 30.0)
           (-30.0 30.0)
  end
  begin
     id 13 
     name thorax
     direction -0.0158036 0.99955 -0.0254909   
     length 2.1383   
     axis 0 0 0   XYZ
    dof rx ry rz
    limits (-20.0 45.0)
           (-30.0 30.0)
           (-30.0 30.0)
  end
  begin
     id 14 
     name lowerneck
     direction -0.0101179 0.999403 -0.0330262   
     length 1.65808   
     axis 0 0 0   XYZ
    dof rx ry rz
    limits (-20.0 45.0)
           (-30.0 30.0)
           (-30.0 30.0)
  end
  begin
     id 15 
     name upperneck
     direction 0.0497734 0.995978 -0.074501   
     length 1.5897   
     axis 0 0 0   XYZ
    dof rx ry rz
    limits (-20.0 45.0)
           (-30.0 30.0)
           (-30.0 30.0)
  end
  begin
     id 16
     name head
     direction 0.0189524 0.999519 -0.0245438  
     length 1.74024  
     axis 0 0 0   XYZ
    dof rx ry rz
    limits (-20.0 45.0)
           (-30.0 30.0)
           (-30.0 30.0)
  end
  begin
     id 17 
     name lclavicle
     direction 0.945604 0.324422 0.0241537  
     length 3.59089  
     axis 0 0 0   XYZ
    dof ry rz
    limits (-20.0 10.0)
           (0.0 20.0)
  end
  begin
     id 18 
     name lhumerus
     direction 1 -4.48964e-011 -2.63524e-027   
     length 5.2391   
     axis 180 -30 -90   XYZ
    dof rx ry rz
    limits (-60.0 90.0)
           (-90.0 90.0)
           (-90.0 90.0)
  end
  begin
     id 19
     name lradius
     direction 1 -4.48969e-011 3.86978e-028   
     length 3.31467   
     axis 180 -30 -90   XYZ
    dof rx
    limits (-10.0 170.0)
  end
  begin
     id 20
     name lwrist
     direction 1 -4.48963e-011 7.20928e-028   
     length 1.65734   
     axis -5.52449e-016 90 90   XYZ
    dof ry
    limits (-180.0 0.0)
 end
  begin
     id 21 
     name lhand
     direction 1 -4.48964e-011 1.44186e-027   
     length 0.9659   
     axis -9.20027e-016 90 90   XYZ
    dof rx rz
    limits (-90.0 90.0)
           (-45.0 45.0)
  end
  begin
     id 22 
     name lfingers
     direction 1 -4.48965e-011 2.88371e-027   
     length 0.778733   
     axis -1.84005e-015 90 90   XYZ
    dof rx
    limits (0.0 90.0)
  end
  begin
     id 23
     name lthumb
     direction 0.707107 -6.34931e-011 0.707107   
     length 1.11811   
     axis -90 45 2.85299e-015   XYZ
    dof rx rz
    limits (-45.0 45.0)
           (-45.0 45.0)
  end
  begin
     id 24 
     name rclavicle
     direction -0.923762 0.370785 0.0958234   
     length 3.54196  
     axis 0 0 0   XYZ 
    dof ry rz
    limits (-10.0 20.0)
           (-20.0 0.0)
  end
  begin
     id 25 
     name rhumerus
     direction -1 -4.48966e-011 1.18702e-017  
     length 5.30252   
     axis 180 30 90   XYZ
    dof rx ry rz
    limits (-90.0 60.0)
           (-90.0 90.0)
           (-90.0 90.0)
  end
  begin
     id 26 
     name rradius
     direction -1 -4.48966e-011 4.46736e-027   
     length 3.67875   
     axis 180 30 90   XYZ
    dof rx
    limits (-10.0 170.0)
  end
  begin
     id 27 
     name rwrist
     direction -1 -4.48966e-011 7.20928e-028   
     length 1.83937   
     axis -5.52449e-016 -90 -90   XYZ
    dof ry
    limits (-180.0 0.0)
  end
  begin
     id 28
     name rhand
     direction -1 -4.48973e-011 1.44186e-027   
     length 0.594811   
     axis -9.20027e-016 -90 -90   XYZ
    dof rx rz
    limits (-90.0 90.0)
           (-45.0 45.0)
  end
  begin
     id 29
     name rfingers
     direction -1 -4.48963e-011 2.88371e-027   
     length 0.479552   
     axis -1.84005e-015 -90 -90   XYZ
    dof rx
    limits (0.0 90.0)
  end
  begin
     id 30
     name rthumb
     direction -0.707107 -6.34932e-011 0.707107   
     length 0.688544   
     axis -90 -45 -2.85299e-015   XYZ
    dof rx rz
    limits (-45.0 45.0)
           (-45.0 45.0)
  end
:hierarchy
  begin
    root lhipjoint rhipjoint lowerback
    lhipjoint lfemur
    lfemur ltibia
    ltibia lfoot
    lfoot ltoes
    rhipjoint rfemur
    rfemur rtibia
    rtibia rfoot
    rfoot rtoes
    lowerback upperback
    upperback thorax
    thorax lowerneck lclavicle rclavicle
    lowerneck upperneck
    upperneck head
    lclavicle lhumerus
    lhumerus lradius
    lradius lwrist
    lwrist lhand lthumb
    lhand lfingers
    rclavicle rhumerus
    rhumerus rradius
    rradius rwrist
    rwrist rhand rthumb
    rhand rfingers
  end

#!OML:ASF E:\acrobat2\Project_11_07_03\Capture day 1\Session 1\Acrobat.ASF
:FULLY-SPECIFIED
:DEGREES
76
root 10.4675 20.3492 -16.2017 4.82853 -5.17469 -4.35892
lowerback -6.05874 -1.29993 2.39396
upperback 0.588358 -1.92311 0.320254
thorax 3.93872 -0.906803 -1.19129
lowerneck 3.95014 -9.12474 -7.34916
upperneck 2.78326 -12.7423 11.418
head 1.39298 -6.43589 4.45869
rclavicle 4.14963e-015 -9.93923e-015
rhumerus -39.4487 -4.05496 -80.4281
rradius 32.0281
rwrist 2.2809
rhand -1.12653 -48.8828
rfingers 7.12502
rthumb 24.5109 -77.3342
lclavicle 4.14963e-015 -9.93923e-015
lhumerus -31.0004 16.5072 73.6392
lradius 31.2896
lwrist 162.847
lhand -28.0666 11.6024
lfingers 7.12502
lthumb -1.45026 41.5772
rfemur -13.4836 9.03957 22.4064
rtibia 29.8697
rfoot -29.2135 -10.0885
rtoes 14.9062
lfemur -20.203 -3.62411 -11.5994
ltibia 43.7192
lfoot -28.9911 -9.34634
ltoes 5.57682
77
root 10.4693 20.3479 -16.2039 4.79634 -5.12443 -4.35578
lowerback -6.04202 -1.34086 2.37287
upperback 0.605244 -1.97657 0.336165
thorax 3.9461 -0.933741 -1.1677
lowerneck 3.93428 -9.15122 -7.29779
upperneck 2.77912 -12.7713 11.3272
head 1.38814 -6.44956 4.42238
rclavicle 2.97929e-014 -1.35174e-014
rhumerus -39.3888 -4.0182 -80.4122
rradius 31.911
rwrist 2.33726
rhand -1.14811 -48.7405
rfingers 7.12502
rthumb 24.4902 -77.1947
lclavicle 2.97929e-014 -1.35174e-014
lhumerus -31.0157 16.5686 73.619
lradius 31.3261
lwrist 162.863
lhand -28.2026 11.5004
lfingers 7.12502
lthumb -1.58158 41.4743
rfemur -13.4439 8.95255 22.4019
rtibia 29.8606
rfoot -29.2127 -10.0778
rtoes 14.9153
lfemur -20.1877 -3.602 -11.61
ltibia 43.7274
lfoot -29.0149 -9.37215
ltoes 5.47445
78
root 10.4714 20.3481 -16.2071 4.76266 -5.11579 -4.38956
lowerback -5.99216 -1.35239 2.39851
upperback 0.603269 -1.99315 0.357296
thorax 3.91527 -0.942106 -1.16026
lowerneck 3.87581 -9.19396 -7.28797
upperneck 2.86632 -12.8329 11.3158
head 1.42781 -6.47694 4.40973
rclavicle -1.66731e-014 3.97569e-016
rhumerus -39.3928 -4.05112 -80.3823
rradius 31.8118
rwrist 2.4276
rhand -1.21897 -48.4984
rfingers 7.12502
rthumb 24.4223 -76.9618
lclavicle -1.66731e-014 3.97569e-016
lhumerus -31.019 16.6486 73.5924
lradius 31.3505
lwrist 162.856
lhand -28.4971 11.2753
lfingers 7.12502
lthumb -1.86599 41.2469
rfemur -13.4105 8.8591 22.4331
rtibia 29.855
rfoot -29.1722 -9.98719
rtoes 15.0782
lfemur -20.161 -3.63378 -11.5771
ltibia 43.7379
lfoot -28.9977 -9.41073
ltoes 5.78555
79
root 10.4747 20.3497 -16.212 4.76554 -5.24898 -4.43953
lowerback -5.96033 -1.31633 2.44676
upperback 0.619559 -1.94896 0.382478
thorax 3.91517 -0.91929 -1.15667
lowerneck 3.72118 -9.07947 -7.3712
upperneck 3.06983 -12.6913 11.3235
head 1.5048 -6.39909 4.41628
rclavicle -4.19684e-014 1.74931e-014
rhumerus -39.3551 -4.02119 -80.388
rradius 31.7884
rwrist 2.38927
rhand -1.28213 -48.3595
rfingers 7.12502
rthumb 24.3618 -76.8311
lclavicle -4.19684e-014 1.74931e-014
lhumerus -30.8229 17.2992 73.4468
lradius 31.0275
lwrist 162.26
lhand -28.5545 11.4147
lfingers 7.12502
lthumb -1.92148 41.3858
rfemur -13.4563 8.7452 22.4539
rtibia 29.851
rfoot -28.9954 -9.86215
rtoes 14.8162
lfemur -20.1501 -3.64095 -11.5465
ltibia 43.7509
lfoot -29.0248 -9.32029
ltoes 5.74034
80
root 10.4785 20.35 -16.2169 4.73564 -5.27444 -4.40511
lowerback -5.95912 -1.32482 2.41207
upperback 0.714679 -1.9598 0.38914
thorax 4.01417 -0.923378 -1.13288
lowerneck 3.59205 -9.18365 -7.29163
upperneck 2.96175 -12.809 11.2131
head 1.49329 -6.4549 4.3629
rclavicle 1.83876e-015 7.95139e-016
rhumerus -39.1872 -3.90768 -80.4448
rradius 31.8162
rwrist 2.24963
rhand -1.24497 -48.5011
rfingers 7.12502
rthumb 24.3974 -76.9679
lclavicle 1.83876e-015 7.95139e-016
lhumerus -30.7521 16.8951 73.6656
lradius 31.2431
lwrist 162.737
lhand -28.3471 11.3539
lfingers 7.12502
lthumb -1.72113 41.3267
rfemur -13.4638 8.57325 22.3909
rtibia 29.8502
rfoot -28.8489 -9.73001
rtoes 14.648
lfemur -20.1369 -3.64912 -11.6082
ltibia 43.7578
lfoot -29.0501 -9.23153
ltoes 5.4077
81
root 10.4806 20.3483 -16.2201 4.67257 -5.1566 -4.37475
lowerback -5.9408 -1.37097 2.37684
upperback 0.833863 -2.02061 0.392989
thorax 4.12673 -0.951946 -1.11619
lowerneck 3.33776 -9.1268 -7.28867
upperneck 3.01364 -12.7271 11.2793
head 1.54604 -6.40515 4.37004
rclavicle -1.99282e-014 6.36111e-015
rhumerus -39.061 -3.84969 -80.4953
rradius 31.9326
rwrist 2.16196
rhand -1.28751 -48.5635
rfingers 7.12502
rthumb 24.3566 -77.0357
lclavicle -1.99282e-014 6.36111e-015
lhumerus -30.4125 17.5181 73.5822
lradius 30.9408
lwrist 162.223
lhand -28.264 11.6562
lfingers 7.12502
lthumb -1.64085 41.6297
rfemur -13.3991 8.55288 22.3705
rtibia 29.8608
rfoot -28.925 -9.75542
rtoes 14.7748
lfemur -20.1065 -3.68428 -11.6385
ltibia 43.7573
lfoot -29.0208 -9.29402
ltoes 5.49954
82
root 10.4825 20.3487 -16.2245 4.67212 -5.02985 -4.35508
lowerback -5.88892 -1.42275 2.419
upperback 0.75462 -2.08819 0.356994
thorax 4.00998 -0.986363 -1.18012
lowerneck 3.59162 -9.08095 -7.32924
upperneck 2.97705 -12.6787 11.3488
head 1.49633 -6.38977 4.41326
rclavicle 8.99501e-015 1.59028e-015
rhumerus -39.3152 -3.77734 -80.5625
rradius 32.0804
rwrist 2.07336
rhand -1.45488 -48.3187
rfingers 7.12502
rthumb 24.1961 -76.8123
lclavicle 8.99501e-015 1.59028e-015
lhumerus -30.7111 16.8539 73.6637
lradius 31.2593
lwrist 162.883
lhand -28.2097 11.4483
lfingers 7.12502
lthumb -1.58843 41.4222
rfemur -13.4111 8.53998 22.3542
rtibia 29.8889
rfoot -29.0588 -9.79346
rtoes 14.927
lfemur -20.1494 -3.72137 -11.6457
ltibia 43.7466
lfoot -28.9462 -9.37445
ltoes 5.65381
83
root 10.4831 20.3499 -16.2297 4.70107 -4.92287 -4.30747
lowerback -5.89326 -1.45878 2.41046
upperback 0.746497 -2.13392 0.316319
thorax 4.00105 -1.00899 -1.22141
lowerneck 3.60979 -9.13299 -7.30934
upperneck 2.94351 -12.7463 11.3474
head 1.4887 -6.42445 4.40902
rclavicle -1.16786e-015 -3.97569e-016
rhumerus -39.3488 -3.81966 -80.6087
rradius 32.0956
rwrist 2.02155
rhand -1.5723 -48.1057
rfingers 7.12502
rthumb 24.0836 -76.6143
lclavicle -1.16786e-015 -3.97569e-016
lhumerus -30.5692 17.131 73.5379
lradius 31.0539
lwrist 162.537
lhand -28.2822 11.5244
lfingers 7.12502
lthumb -1.65846 41.4977
rfemur -13.4658 8.47701 22.3058
rtibia 29.917
rfoot -29.1204 -9.82415
rtoes 14.9255
lfemur -20.2291 -3.73517 -11.6814
ltibia 43.7308
lfoot -28.8239 -9.48935
ltoes 5.89487
84
root 10.4831 20.3499 -16.2342 4.71148 -4.90103 -4.24127
lowerback -5.93283 -1.47349 2.32551
upperback 0.777833 -2.14856 0.303776
thorax 4.05788 -1.01697 -1.18996
lowerneck 3.58602 -9.16139 -7.2812
upperneck 2.91302 -12.7783 11.3101
head 1.48254 -6.43995 4.39205
rclavicle -3.93345e-014 1.66979e-014
rhumerus -39.3039 -3.88 -80.5927
rradius 32.0836
rwrist 2.0325
rhand -1.50358 -48.1757
rfingers 7.12502
rthumb 24.1494 -76.6756
lclavicle -3.93345e-014 1.66979e-014
lhumerus -30.6097 16.6948 73.6743
lradius 31.2882
lwrist 162.948
lhand -28.3568 11.3744
lfingers 7.12502
lthumb -1.73051 41.3471
rfemur -13.5042 8.45713 22.2384
rtibia 29.9285
rfoot -29.0986 -9.93728
rtoes 14.4064
lfemur -20.2615 -3.70512 -11.7471
ltibia 43.7175
lfoot -28.7594 -9.60402
ltoes 6.2249
85
root 10.4847 20.3509 -16.2379 4.73621 -5.00013 -4.22107
lowerback -5.91503 -1.43175 2.29834
upperback 0.770851 -2.09005 0.298452
thorax 4.04343 -0.988745 -1.17429
lowerneck 3.49373 -9.14347 -7.20783
upperneck 2.99529 -12.7521 11.2572
head 1.51119 -6.4221 4.35942
rclavicle 1.22501e-014 -4.77083e-015
rhumerus -39.3188 -3.95281 -80.55
rradius 32.0933
rwrist 2.02411
rhand -1.44225 -48.2347
rfingers 7.12502
rthumb 24.2082 -76.7268
lclavicle 1.22501e-014 -4.77083e-015
lhumerus -30.5901 16.6315 73.7089
lradius 31.3195
lwrist 162.999
lhand -28.3117 11.3997
lfingers 7.12502
lthumb -1.68696 41.3727
rfemur -13.5588 8.42735 22.1962
rtibia 29.9305
rfoot -28.9719 -9.98076
rtoes 13.8632
lfemur -20.2711 -3.6548 -11.7841
ltibia 43.7069
lfoot -28.7831 -9.61123
ltoes 6.52191
86
root 10.4859 20.3516 -16.2415 4.78843 -5.11772 -4.26726
lowerback -5.87951 -1.38138 2.33701
upperback 0.732782 -2.02468 0.314944
thorax 3.98552 -0.956715 -1.17129
lowerneck 3.43037 -9.109 -7.1905
upperneck 3.10281 -12.7112 11.256
head 1.548 -6.39777 4.35193
rclavicle 1.78906e-015 -5.96354e-015
rhumerus -39.3469 -3.96239 -80.5281
rradius 32.0955
rwrist 2.00982
rhand -1.41956 -48.265
rfingers 7.12502
rthumb 24.23 -76.7541
lclavicle 1.78906e-015 -5.96354e-015
lhumerus -30.5868 16.6011 73.7335
lradius 31.2986
lwrist 163.003
lhand -28.1268 11.4738
lfingers 7.12502
lthumb -1.5084 41.4482
rfemur -13.6374 8.43872 22.2209
rtibia 29.9297
rfoot -28.8873 -9.90345
rtoes 14.0108
lfemur -20.3113 -3.60891 -11.7484
ltibia 43.6999
lfoot -28.82 -9.56233
ltoes 6.67792
87
root 10.4872 20.3515 -16.2449 4.80473 -5.17055 -4.27259
lowerback -5.92398 -1.34816 2.37023
upperback 0.777036 -1.98402 0.292943
thorax 4.05614 -0.934194 -1.21102
lowerneck 3.39492 -9.06583 -7.27096
upperneck 3.1397 -12.6646 11.4327
head 1.57635 -6.37305 4.4151
rclavicle -4.27387e-014 1.03368e-014
rhumerus -39.1909 -4.06943 -80.5276
rradius 32.0312
rwrist 2.12867
rhand -1.2257 -48.4189
rfingers 7.12502
rthumb 24.4159 -76.8831
lclavicle -4.27387e-014 1.03368e-014
lhumerus -30.5063 16.57 73.7558
lradius 31.3313
lwrist 162.965
lhand -28.0209 11.5441
lfingers 7.12502
lthumb -1.40609 41.5192
rfemur -13.6602 8.43938 22.2077
rtibia 29.9211
rfoot -28.9487 -9.64469
rtoes 14.9546
lfemur -20.3321 -3.61353 -11.7508
ltibia 43.6945
lfoot -28.8719 -9.48204
ltoes 6.46144
88
root 10.4885 20.3521 -16.2481 4.79461 -5.17341 -4.2142
lowerback -5.99997 -1.33529 2.35547
upperback 0.862349 -1.96738 0.242172
thorax 4.18694 -0.923149 -1.25736
lowerneck 3.40887 -9.18908 -7.14557
upperneck 2.88633 -12.8014 11.3268
head 1.49815 -6.44503 4.3668
rclavicle 1.9307e-014 -1.59028e-015
rhumerus -38.9419 -4.27686 -80.5238
rradius 31.886
rwrist 2.30855
rhand -1.09669 -48.5009
rfingers 7.12502
rthumb 24.5395 -76.9484
lclavicle 1.9307e-014 -1.59028e-015
lhumerus -30.364 16.5326 73.776
lradius 31.3679
lwrist 162.95
lhand -28.0668 11.4727
lfingers 7.12502
lthumb -1.4504 41.4475
rfemur -13.6544 8.40562 22.1347
rtibia 29.9069
rfoot -28.9821 -9.49441
rtoes 15.4861
lfemur -20.3352 -3.66009 -11.82
ltibia 43.6898
lfoot -28.8752 -9.41902
ltoes 6.31749
89
root 10.4911 20.3523 -16.2511 4.77599 -5.12628 -4.16999
lowerback -6.01766 -1.35474 2.33142
upperback 0.905734 -1.99208 0.226003
thorax 4.24131 -0.934673 -1.26415
lowerneck 3.33278 -9.21685 -7.06258
upperneck 2.85761 -12.8278 11.2658
head 1.4954 -6.45572 4.33198
rclavicle -1.07592e-014 1.94809e-014
rhumerus -38.8252 -4.38176 -80.5159
rradius 31.7836
rwrist 2.42688
rhand -1.0787 -48.6334
rfingers 7.12502
rthumb 24.5568 -77.0786
lclavicle -1.07592e-014 1.94809e-014
lhumerus -30.2562 16.5386 73.7962
lradius 31.3234
lwrist 162.955
lhand -28.1879 11.263
lfingers 7.12502
lthumb -1.56741 41.237
rfemur -13.6594 8.328 22.0769
rtibia 29.8933
rfoot -28.9449 -9.58935
rtoes 14.8458
lfemur -20.3389 -3.70022 -11.8777
ltibia 43.6878
lfoot -28.8148 -9.41358
ltoes 6.39481
